<svg width="63" height="62" viewBox="0 0 63 62" fill="none" xmlns="http://www.w3.org/2000/svg">
<g clip-path="url(#clip0)">
<path d="M31.7341 43.1036L43.2447 34.7402L53.726 38.2095L56.4462 49.7212C55.5952 50.8398 54.6646 51.9094 53.6538 52.9204C50.2697 56.3044 46.2402 58.8077 41.8438 60.3196L31.7334 54.0912L31.7341 43.1036Z" fill="#F6F9F9"/>
<path d="M31.7336 43.1037L20.2222 34.7402L24.6192 21.208H38.8478L43.2448 34.7402L31.7336 43.1037Z" fill="#135772"/>
<path d="M20.222 34.7401L31.7332 43.1035V54.091L21.6443 60.3267C17.2396 58.8155 13.2026 56.3097 9.81296 52.9202C8.81011 51.9173 7.88654 50.8566 7.04102 49.7479L9.74993 38.1281L20.222 34.7401Z" fill="#F6F9F9"/>
<path d="M41.8438 60.3194C38.6336 61.4235 35.2281 61.9999 31.7335 61.9999C28.2467 61.9999 24.8484 61.426 21.6445 60.3268L31.7335 54.0911L41.8438 60.3194Z" fill="#135772"/>
<path d="M24.6189 21.2079L20.222 34.7401L9.74985 38.1282L0.741699 30.3021C0.878296 24.0784 2.83926 18.1596 6.37091 13.1611L18.219 12.2739L24.6189 21.2079Z" fill="#ECECEF"/>
<path d="M38.8472 21.208H24.6187L18.2188 12.274L22.7277 1.32173C25.6101 0.451122 28.6369 0 31.733 0C34.8329 0 37.8633 0.452092 40.749 1.32476L45.3382 12.3193L38.8472 21.208Z" fill="#F6F9F9"/>
<path d="M53.726 38.2094L43.2446 34.7402L38.8477 21.208L45.3385 12.3195L57.1294 13.2091C60.6518 18.2146 62.6015 24.1389 62.7256 30.3662L53.726 38.2094Z" fill="#ECECEF"/>
<path d="M7.04111 49.7481C2.94998 44.3829 0.733398 37.8624 0.733398 31.0001C0.733398 30.7671 0.736792 30.5345 0.741883 30.3022L9.75003 38.1284L7.04111 49.7481Z" fill="#135772"/>
<path d="M6.37109 13.1613C7.38994 11.7193 8.53908 10.3537 9.81305 9.0797C13.4789 5.41388 17.9013 2.7795 22.728 1.32166L18.2191 12.2739L6.37109 13.1613Z" fill="#135772"/>
<path d="M57.1295 13.2092L45.3387 12.3195L40.7495 1.32483C45.5721 2.78328 49.9906 5.41657 53.6538 9.07972C54.9419 10.3679 56.1023 11.7495 57.1295 13.2092Z" fill="#135772"/>
<path d="M62.7257 30.3662C62.73 30.5772 62.7335 30.7884 62.7335 31.0001C62.7335 37.8508 60.5243 44.3612 56.4463 49.7212L53.7261 38.2095L62.7257 30.3662Z" fill="#135772"/>
<path d="M31.7341 43.1036L43.2447 34.7402L53.726 38.2095L56.4462 49.7212C55.5952 50.8398 54.6646 51.9094 53.6538 52.9204C50.2697 56.3044 46.2402 58.8077 41.8438 60.3196L31.7334 54.0912L31.7341 43.1036Z" fill="#ECECEF"/>
<path d="M53.726 38.2094L43.2446 34.7402L38.8477 21.208L45.3385 12.3195L57.1294 13.2091C60.6518 18.2146 62.6015 24.1389 62.7256 30.3662L53.726 38.2094Z" fill="#DDDDDF"/>
<path d="M57.1295 13.2092L45.3387 12.3195L40.7495 1.32483C45.5721 2.78328 49.9906 5.41657 53.6538 9.07972C54.9419 10.3679 56.1023 11.7495 57.1295 13.2092Z" fill="#093F61"/>
<path d="M62.7257 30.3661C62.73 30.5771 62.7335 30.7882 62.7335 31C62.7335 37.8507 60.5243 44.3611 56.4463 49.7211L53.7261 38.2093L62.7257 30.3661Z" fill="#093F61"/>
<path d="M31.7334 61.9999C35.228 61.9999 38.6334 61.4235 41.8438 60.3194L31.7334 54.0911V61.9999Z" fill="#093F61"/>
<path d="M45.3386 12.3194L40.7494 1.32476C37.8637 0.452092 34.8333 0 31.7334 0V21.208H38.8477L45.3386 12.3194Z" fill="#ECECEF"/>
<path d="M38.8476 21.208H31.7334V43.1037L43.2447 34.7402L38.8476 21.208Z" fill="#093F61"/>
</g>
<defs>
<clipPath id="clip0">
<rect width="62" height="62" fill="white" transform="translate(0.733398)"/>
</clipPath>
</defs>
</svg>
