<svg width="63" height="62" viewBox="0 0 63 62" fill="none" xmlns="http://www.w3.org/2000/svg">
<g clip-path="url(#clip0)">
<path d="M61.6814 36.0153L54.964 17.2103C53.3539 12.703 49.0844 9.69434 44.2981 9.69434H18.8579C14.0717 9.69434 9.80216 12.7029 8.19209 17.2103L1.47478 36.0153C-0.211085 40.7347 0.507606 45.9795 3.40078 50.0715C5.49788 53.0374 9.89274 53.0528 12.0105 50.1016L18.6821 40.8045C19.5094 39.6516 20.8415 38.9679 22.2605 38.9679H40.8955C42.3146 38.9679 43.6466 39.6516 44.474 40.8045L51.1455 50.1016C53.2633 53.0528 57.6582 53.0374 59.7553 50.0715C62.6486 45.9795 63.3673 40.7347 61.6814 36.0153Z" fill="#407093"/>
<path d="M61.6813 36.0153L54.9639 17.2103C53.3538 12.703 49.0843 9.69434 44.298 9.69434H33.8765C38.6627 9.69434 42.9322 12.7029 44.5423 17.2103L51.2597 36.0153C52.7684 40.2389 52.3498 44.8825 50.1718 48.7448L51.1455 50.1016C53.2633 53.0528 57.6582 53.0374 59.7553 50.0715C62.6483 45.9795 63.367 40.7347 61.6813 36.0153Z" fill="#2B4D66"/>
<path d="M22.0626 17.5309H19.6657C19.5266 17.5309 19.414 17.4182 19.414 17.2793V14.8823C19.414 14.4653 19.0759 14.1273 18.659 14.1273H16.0752C15.6582 14.1273 15.3202 14.4654 15.3202 14.8823V17.2793C15.3202 17.4183 15.2075 17.5309 15.0686 17.5309H12.6715C12.2545 17.5309 11.9165 17.869 11.9165 18.2859V20.8697C11.9165 21.2867 12.2546 21.6247 12.6715 21.6247H15.0685C15.2075 21.6247 15.3201 21.7375 15.3201 21.8764V24.2733C15.3201 24.6903 15.6582 25.0283 16.0751 25.0283H18.6589C19.0759 25.0283 19.4139 24.6902 19.4139 24.2733V21.8764C19.4139 21.7373 19.5266 21.6247 19.6655 21.6247H22.0625C22.4795 21.6247 22.8175 21.2866 22.8175 20.8697V18.2859C22.8176 17.869 22.4795 17.5309 22.0626 17.5309Z" fill="#DAE7EF"/>
<path d="M22.0626 17.531H21.1766V19.2289C21.1766 19.6459 20.8386 19.9839 20.4216 19.9839H18.654C18.1675 19.9839 17.7732 20.3783 17.7732 20.8647V22.6324C17.7732 23.0495 17.4351 23.3875 17.0182 23.3875H15.3203V24.2734C15.3203 24.6904 15.6584 25.0284 16.0753 25.0284H18.6591C19.0762 25.0284 19.4141 24.6903 19.4141 24.2734V21.8765C19.4141 21.7374 19.5269 21.6248 19.6658 21.6248H22.0627C22.4797 21.6248 22.8177 21.2867 22.8177 20.8698V18.286C22.8176 17.8691 22.4795 17.531 22.0626 17.531Z" fill="#C1D5E4"/>
<path d="M38.592 35.2284C41.1216 35.2284 43.1722 33.1777 43.1722 30.6481C43.1722 28.1185 41.1216 26.0679 38.592 26.0679C36.0624 26.0679 34.0117 28.1185 34.0117 30.6481C34.0117 33.1777 36.0624 35.2284 38.592 35.2284Z" fill="#DAE7EF"/>
<path d="M24.5783 35.2284C27.1079 35.2284 29.1585 33.1777 29.1585 30.6481C29.1585 28.1185 27.1079 26.0679 24.5783 26.0679C22.0487 26.0679 19.998 28.1185 19.998 30.6481C19.998 33.1777 22.0487 35.2284 24.5783 35.2284Z" fill="#DAE7EF"/>
<path d="M39.7233 26.209C39.8152 26.5708 39.8643 26.9498 39.8643 27.3402C39.8643 29.8699 37.8137 31.9205 35.2841 31.9205C34.8937 31.9205 34.5147 31.8713 34.1528 31.7794C34.6566 33.7618 36.4529 35.2284 38.592 35.2284C41.1217 35.2284 43.1723 33.1778 43.1723 30.6482C43.1723 28.509 41.7057 26.7126 39.7233 26.209Z" fill="#C1D5E4"/>
<path d="M25.7091 26.209C25.801 26.5708 25.8502 26.9498 25.8502 27.3402C25.8502 29.8699 23.7996 31.9205 21.2699 31.9205C20.8795 31.9205 20.5005 31.8713 20.1387 31.7794C20.6423 33.7618 22.4387 35.2284 24.5778 35.2284C27.1075 35.2284 29.1581 33.1778 29.1581 30.6482C29.1581 28.509 27.6915 26.7127 25.7091 26.209Z" fill="#C1D5E4"/>
<path d="M31.5972 21.1859C33.1014 21.1859 34.3208 19.9665 34.3208 18.4623C34.3208 16.9581 33.1014 15.7386 31.5972 15.7386C30.093 15.7386 28.8735 16.9581 28.8735 18.4623C28.8735 19.9665 30.093 21.1859 31.5972 21.1859Z" fill="#DAE7EF"/>
<path d="M32.6673 15.957C32.8078 16.2854 32.8857 16.647 32.8857 17.0268C32.8857 18.531 31.6662 19.7504 30.162 19.7504C29.7823 19.7504 29.4207 19.6724 29.0923 19.5321C29.508 20.5045 30.4731 21.186 31.5976 21.186C33.1018 21.186 34.3212 19.9666 34.3212 18.4623C34.3212 17.3379 33.6397 16.3727 32.6673 15.957Z" fill="#C1D5E4"/>
<path d="M45.735 14.6639C44.8906 14.6639 44.2061 15.3485 44.2061 16.1929C44.2061 17.0372 44.8906 17.7218 45.735 17.7218C46.5795 17.7218 47.2639 17.0372 47.2639 16.1929C47.2639 15.3485 46.5795 14.6639 45.735 14.6639Z" fill="#F6E266"/>
<path d="M45.735 24.5173C46.5795 24.5173 47.2639 23.8328 47.2639 22.9884C47.2639 22.144 46.5794 21.4595 45.735 21.4595C44.8906 21.4595 44.2061 22.144 44.2061 22.9884C44.2061 23.8328 44.8906 24.5173 45.735 24.5173Z" fill="#86F1A7"/>
<path d="M49.1329 21.1196C49.9773 21.1196 50.6619 20.4351 50.6619 19.5907C50.6619 18.7463 49.9773 18.0618 49.1329 18.0618C48.2885 18.0618 47.604 18.7463 47.604 19.5907C47.604 20.4351 48.2885 21.1196 49.1329 21.1196Z" fill="#DD5790"/>
<path d="M43.8666 19.5907C43.8666 18.7463 43.182 18.0618 42.3375 18.0618C41.4931 18.0618 40.8086 18.7463 40.8086 19.5907C40.8086 20.4351 41.4931 21.1196 42.3375 21.1196C43.182 21.1197 43.8666 20.4351 43.8666 19.5907Z" fill="#61A2F9"/>
<path d="M38.5915 36.1366C35.5651 36.1366 33.103 33.6745 33.103 30.6481C33.103 27.6217 35.5651 25.1597 38.5915 25.1597C41.6179 25.1597 44.0799 27.6219 44.0799 30.6481C44.0799 33.6744 41.618 36.1366 38.5915 36.1366ZM38.5915 26.9761C36.5667 26.9761 34.9194 28.6234 34.9194 30.6481C34.9194 32.6728 36.5668 34.3202 38.5915 34.3202C40.6162 34.3202 42.2635 32.6729 42.2635 30.6481C42.2635 28.6233 40.6163 26.9761 38.5915 26.9761Z" fill="#DD5790"/>
<path d="M24.5783 36.1366C21.5519 36.1366 19.0898 33.6744 19.0898 30.6481C19.0898 27.6219 21.5519 25.1597 24.5783 25.1597C27.6047 25.1597 30.0668 27.6219 30.0668 30.6481C30.0668 33.6744 27.6047 36.1366 24.5783 36.1366ZM24.5783 26.9761C22.5535 26.9761 20.9062 28.6234 20.9062 30.6481C20.9062 32.6728 22.5536 34.3202 24.5783 34.3202C26.603 34.3202 28.2503 32.6728 28.2503 30.6481C28.2503 28.6234 26.603 26.9761 24.5783 26.9761Z" fill="#DD5790"/>
</g>
<defs>
<clipPath id="clip0">
<rect width="62" height="62" fill="white" transform="translate(0.577637)"/>
</clipPath>
</defs>
</svg>
