<svg width="63" height="62" viewBox="0 0 63 62" fill="none" xmlns="http://www.w3.org/2000/svg">
<g clip-path="url(#clip0)">
<path d="M24.4102 42.8181H37.8707V53.3553H24.4102V42.8181Z" fill="#DAE7EF"/>
<path d="M29.0996 42.8181H37.8697V53.3553H29.0996V42.8181Z" fill="#C1D5E4"/>
<path d="M41.513 54.2615H20.7667C20.2661 54.2615 19.8604 53.8557 19.8604 53.3551C19.8604 52.8544 20.2661 52.4487 20.7667 52.4487H41.513C42.0136 52.4487 42.4194 52.8545 42.4194 53.3551C42.4194 53.8557 42.0136 54.2615 41.513 54.2615Z" fill="#98B9D3"/>
<path d="M2.42641 33.7648L1.21777 36.3743V42.041C1.21777 43.376 2.29999 44.4582 3.63493 44.4582H58.9877C60.3227 44.4582 61.4049 43.376 61.4049 42.041V36.3743L60.1964 33.7648H2.42641Z" fill="#DAE7EF"/>
<path d="M60.1964 33.7648H55.9486V36.5848C55.9486 37.9197 54.8664 39.002 53.5315 39.002H1.21777V42.041C1.21777 43.376 2.29999 44.4582 3.63493 44.4582H58.9877C60.3227 44.4582 61.4049 43.376 61.4049 42.041V36.3743L60.1964 33.7648Z" fill="#C1D5E4"/>
<path d="M58.9879 4.52185H3.63493C2.29999 4.52185 1.21777 5.60407 1.21777 6.939V36.3743H61.4049V6.939C61.405 5.60407 60.3228 4.52185 58.9879 4.52185Z" fill="#61A2F9"/>
<path d="M58.9873 4.52185H55.9482V36.3743H61.4045V6.939C61.4045 5.60407 60.3223 4.52185 58.9873 4.52185Z" fill="#4A81F6"/>
<path d="M58.9875 45.3647H3.63457C1.80194 45.3647 0.311035 43.8737 0.311035 42.0411V6.93902C0.311035 5.10638 1.80194 3.61548 3.63457 3.61548H58.9874C60.82 3.61548 62.3109 5.10651 62.3109 6.93902V42.0411C62.311 43.8737 60.8201 45.3647 58.9875 45.3647ZM3.63457 5.42825C2.80157 5.42825 2.12381 6.10589 2.12381 6.93902V42.0411C2.12381 42.8741 2.80145 43.5518 3.63457 43.5518H58.9874C59.8204 43.5518 60.4981 42.8742 60.4981 42.0411V6.93902C60.4981 6.10601 59.8205 5.42825 58.9874 5.42825H3.63457Z" fill="#98B9D3"/>
<path d="M36.2527 14.8675L29.1636 10.7747C28.6792 10.4951 28.0737 10.8446 28.0737 11.4039V19.5896C28.0737 20.1489 28.6792 20.4985 29.1636 20.2188L36.2527 16.1259C36.737 15.8462 36.737 15.1471 36.2527 14.8675Z" fill="#2B4D66"/>
<path d="M49.7964 27.4858H9.75307C9.25246 27.4858 8.84668 27.08 8.84668 26.5794C8.84668 26.0788 9.25246 25.673 9.75307 25.673H49.7964C50.297 25.673 50.7027 26.0788 50.7027 26.5794C50.7027 27.0801 50.297 27.4858 49.7964 27.4858Z" fill="#407093"/>
<path d="M15.6795 29.1484C17.0984 29.1484 18.2486 27.9981 18.2486 26.5793C18.2486 25.1604 17.0984 24.0101 15.6795 24.0101C14.2606 24.0101 13.1104 25.1604 13.1104 26.5793C13.1104 27.9981 14.2606 29.1484 15.6795 29.1484Z" fill="#407093"/>
<path d="M16.653 24.2018C16.7762 24.5021 16.8445 24.8306 16.8445 25.1754C16.8445 26.5942 15.6942 27.7445 14.2754 27.7445C13.9307 27.7445 13.6021 27.6762 13.3018 27.5531C13.6854 28.4891 14.6052 29.1487 15.6794 29.1487C17.0983 29.1487 18.2486 27.9984 18.2486 26.5796C18.2486 25.5052 17.5891 24.5854 16.653 24.2018Z" fill="#2B4D66"/>
<path d="M54.0403 25.9487C53.7309 25.9165 53.4294 25.9272 53.1404 25.9754C52.8664 26.0212 52.6421 25.7587 52.7198 25.4919C52.8051 25.1984 52.851 24.8879 52.851 24.5667C52.851 22.7367 51.3675 21.2531 49.5374 21.2531C49.5362 21.2531 49.535 21.2531 49.5337 21.2531C49.34 21.2534 49.1726 21.1151 49.1488 20.9229C48.9341 19.1771 47.3625 17.8512 45.5207 18.0348C44.048 18.1817 42.8348 19.3201 42.5932 20.7803C42.5437 21.0797 42.5357 21.3727 42.5635 21.6552C42.5893 21.9171 42.3569 22.1249 42.0997 22.0691C41.8722 22.0197 41.6361 21.9936 41.3937 21.9936C40.3733 21.9936 39.4606 22.4549 38.8527 23.1803C38.7021 23.3602 38.4188 23.3602 38.2683 23.1803C37.6604 22.4549 36.7477 21.9936 35.7273 21.9936C33.8972 21.9936 32.4137 23.4771 32.4137 25.3072C32.4137 25.4999 32.431 25.6883 32.4626 25.8719C32.4462 25.8717 32.4301 25.8707 32.4137 25.8707C30.5127 25.8707 28.9856 27.4714 29.1068 29.3986C29.21 31.038 30.535 32.3735 32.1735 32.4894C32.8811 32.5394 33.5449 32.3664 34.1034 32.0346C34.6188 32.3651 35.2313 32.5575 35.8889 32.5575C36.7368 32.5575 37.51 32.2387 38.096 31.7148C38.6731 32.2031 39.4192 32.498 40.2344 32.498C40.6094 32.498 40.9694 32.4348 41.3056 32.32C41.8865 33.2775 42.9388 33.9174 44.1405 33.9174C45.3522 33.9174 46.4115 33.2666 46.9894 32.2959C47.3454 32.4266 47.7301 32.498 48.1314 32.498C49.2825 32.498 50.2962 31.9107 50.8902 31.0197C51.4782 31.9439 52.5106 32.5575 53.6871 32.5575C55.6369 32.5575 57.1935 30.8733 56.9812 28.8802C56.8181 27.3437 55.5771 26.1088 54.0403 25.9487Z" fill="#F6F9F9"/>
<path d="M56.9816 28.8801C56.818 27.3437 55.5771 26.1089 54.0403 25.9487C53.7309 25.9165 53.4294 25.9272 53.1405 25.9754C52.8664 26.0212 52.6423 25.7587 52.7198 25.4919C52.8052 25.1984 52.8511 24.8879 52.8511 24.5667C52.8511 22.7367 51.3675 21.2531 49.5374 21.2531C49.5362 21.2531 49.535 21.2531 49.5337 21.2531C49.3401 21.2534 49.1725 21.1152 49.1488 20.9229C48.9341 19.1771 47.3625 17.8512 45.5208 18.0348C45.1237 18.0744 44.7467 18.1881 44.4014 18.3587C45.3807 18.842 46.0869 19.7943 46.2256 20.9229C46.2493 21.1151 46.4167 21.2534 46.6105 21.2531H46.6142C48.4443 21.2531 49.9278 22.7367 49.9278 24.5667C49.9278 24.8879 49.882 25.1983 49.7966 25.4919C49.719 25.7587 49.9432 26.0212 50.2173 25.9754C50.5062 25.9272 50.8078 25.9165 51.1171 25.9487C52.6539 26.1089 53.8948 27.3437 54.0584 28.8801C54.2135 30.3368 53.4233 31.6274 52.2258 32.2172C52.6667 32.4346 53.1625 32.5574 53.6874 32.5574C55.6373 32.5574 57.1937 30.8732 56.9816 28.8801Z" fill="#DAE7EF"/>
<path d="M55.4871 31.072H53.5588L52.6311 31.4845L51.7417 31.072H48.7584L47.8856 31.5072L46.9444 31.072H43.9569L43.0505 31.5526L42.144 31.072H39.1565L38.2588 31.5072L37.3426 31.072H34.3592L33.4681 31.4164L32.5422 31.072H30.614C29.7442 31.072 29.07 31.8325 29.1742 32.6961L32.1203 57.1081C32.2082 57.8366 32.8264 58.3847 33.5601 58.3847H34.373L35.2845 57.8905L36.1899 58.3847H38.2726L39.202 57.8679L40.0865 58.3847H42.144L43.0504 57.8905L43.9567 58.3847H46.0144L46.9806 57.8905L47.8282 58.3847H49.911L50.8374 57.8905L51.7281 58.3847H52.541C53.2748 58.3847 53.8929 57.8366 53.9808 57.1081L56.9269 32.6961C57.0311 31.8325 56.3569 31.072 55.4871 31.072Z" fill="#DD5790"/>
<path d="M37.8703 27.6132C38.5124 27.6132 39.033 27.0926 39.033 26.4505C39.033 25.8083 38.5124 25.2877 37.8703 25.2877C37.2281 25.2877 36.7075 25.8083 36.7075 26.4505C36.7075 27.0926 37.2281 27.6132 37.8703 27.6132Z" fill="#F6E266"/>
<path d="M42.6759 28.9048C43.3181 28.9048 43.8387 28.3843 43.8387 27.7421C43.8387 27.0999 43.3181 26.5793 42.6759 26.5793C42.0338 26.5793 41.5132 27.0999 41.5132 27.7421C41.5132 28.3843 42.0338 28.9048 42.6759 28.9048Z" fill="#F6E266"/>
<path d="M55.487 31.072H53.5587L53.1809 31.397L50.4983 53.6257C50.4104 54.3542 49.7922 54.9023 49.0585 54.9023H31.854L32.1202 57.1083C32.2081 57.8368 32.8263 58.3848 33.56 58.3848H34.3729L35.2843 57.8907L36.1898 58.3848H38.2725L39.2018 57.868L40.0863 58.3848H42.1438L43.0502 57.8907L43.9566 58.3848H46.0142L46.9804 57.8907L47.8281 58.3848H49.911L50.8374 57.8907L51.728 58.3848H52.5409C53.2748 58.3848 53.8928 57.8368 53.9807 57.1083L56.9268 32.6963C57.0311 31.8325 56.3568 31.072 55.487 31.072Z" fill="#DA387D"/>
<path d="M42.144 31.0718H43.9569V58.3793H42.144V31.0718Z" fill="#DAE7EF"/>
<path d="M34.3727 58.3846H36.1897L34.359 31.072H32.542L34.3727 58.3846Z" fill="#DAE7EF"/>
<path d="M38.2723 58.3846H40.0862L39.1562 31.072H37.3423L38.2723 58.3846Z" fill="#DAE7EF"/>
<path d="M46.0146 58.3846H47.8286L48.7586 31.072H46.9446L46.0146 58.3846Z" fill="#DAE7EF"/>
<path d="M49.9111 58.3846H51.7281L53.5588 31.072H51.7418L49.9111 58.3846Z" fill="#DAE7EF"/>
<path d="M43.0508 48.6278C47.0344 48.6278 50.2638 46.3128 50.2638 43.4571C50.2638 40.6014 47.0344 38.2864 43.0508 38.2864C39.0672 38.2864 35.8379 40.6014 35.8379 43.4571C35.8379 46.3128 39.0672 48.6278 43.0508 48.6278Z" fill="#F6F9F9"/>
<path d="M43.0506 49.5343C40.9361 49.5343 38.9372 48.9361 37.4222 47.8501C35.8159 46.6985 34.9312 45.1385 34.9312 43.4572C34.9312 41.7758 35.8159 40.2158 37.4222 39.0643C38.9372 37.9782 40.9361 37.3801 43.0506 37.3801C45.1651 37.3801 47.164 37.9783 48.679 39.0643C50.2854 40.2158 51.1701 41.7758 51.1701 43.4572C51.1701 45.1385 50.2854 46.6985 48.679 47.8501C47.164 48.9362 45.1651 49.5343 43.0506 49.5343ZM43.0506 39.193C39.5732 39.193 36.744 41.1059 36.744 43.4572C36.744 45.8085 39.5732 47.7214 43.0506 47.7214C46.5281 47.7214 49.3572 45.8085 49.3572 43.4572C49.3572 41.1059 46.5281 39.193 43.0506 39.193Z" fill="#DAE7EF"/>
<path d="M53.2198 31.072L50.4979 53.6257C50.4638 53.9084 50.3492 54.1631 50.1797 54.37L49.9106 58.3847H51.7277L53.5583 31.0721H53.2198V31.072Z" fill="#C1D5E4"/>
<path d="M46.1332 54.9022L46.0146 58.3846H47.8286L47.9472 54.9022H46.1332Z" fill="#C1D5E4"/>
<path d="M42.144 54.9022H43.9569V58.3794H42.144V54.9022Z" fill="#C1D5E4"/>
<path d="M38.1543 54.9022L38.2728 58.3846H40.0867L39.9682 54.9022H38.1543Z" fill="#C1D5E4"/>
<path d="M34.1396 54.9022L34.373 58.3846H36.19L35.9565 54.9022H34.1396Z" fill="#C1D5E4"/>
</g>
<defs>
<clipPath id="clip0">
<rect width="62" height="62" fill="white" transform="translate(0.311035)"/>
</clipPath>
</defs>
</svg>
