<svg width="63" height="62" viewBox="0 0 63 62" fill="none" xmlns="http://www.w3.org/2000/svg">
<g clip-path="url(#clip0)">
<path d="M57.4437 32.2465H50.466V27.8273C50.466 17.1795 41.8035 8.51696 31.1557 8.51696C20.5079 8.51696 11.8455 17.1795 11.8455 27.8272V32.2464H4.86768V27.8272C4.86768 13.3319 16.6604 1.53918 31.1556 1.53918C45.6508 1.53918 57.4436 13.3319 57.4436 27.8272V32.2465H57.4437Z" fill="#407093"/>
<path d="M31.1556 1.54053C30.5472 1.54053 29.9439 1.56305 29.3457 1.60398C42.9999 2.53701 53.824 13.9416 53.824 27.8284V32.2476H57.4437V27.8284C57.4436 13.3332 45.6509 1.54053 31.1556 1.54053Z" fill="#2B4D66"/>
<path d="M31.1556 60.4609C37.0469 60.4609 41.8228 55.685 41.8228 49.7936C41.8228 43.9022 37.0469 39.1263 31.1556 39.1263C25.2642 39.1263 20.4883 43.9022 20.4883 49.7936C20.4883 55.685 25.2642 60.4609 31.1556 60.4609Z" fill="#DD5790"/>
<path d="M37.0526 40.9052C38.1758 42.5945 38.8315 44.6215 38.8315 46.8023C38.8315 52.6936 34.0556 57.4696 28.1642 57.4696C25.9835 57.4696 23.9565 56.8138 22.2671 55.6907C24.1781 58.5653 27.4449 60.4608 31.1556 60.4608C37.0469 60.4608 41.8229 55.6849 41.8229 49.7936C41.8228 46.083 39.9273 42.8163 37.0526 40.9052Z" fill="#DA387D"/>
<path d="M8.28357 53.1814H4.15186C1.94492 53.1814 0.155762 51.3922 0.155762 49.1853V33.9823C0.155762 31.7754 1.94492 29.9862 4.15186 29.9862H8.28357V53.1814Z" fill="#DAE7EF"/>
<path d="M54.0283 29.9862H58.16C60.367 29.9862 62.1561 31.7754 62.1561 33.9823V49.1853C62.1561 51.3922 60.367 53.1814 58.16 53.1814H54.0283V29.9862Z" fill="#DAE7EF"/>
<path d="M4.15186 29.9862C3.86741 29.9862 3.59011 30.0165 3.32249 30.0729V48.0614C3.32249 49.0645 2.50922 49.8778 1.50608 49.8778H0.216797C0.54484 51.7545 2.18118 53.1814 4.15186 53.1814H8.28358V29.9862H4.15186Z" fill="#C1D5E4"/>
<path d="M58.8007 30.0378C58.8344 30.2465 58.8526 30.4603 58.8526 30.6785V45.8815C58.8526 48.0884 57.0634 49.8776 54.8565 49.8776H54.0283V53.1811H58.16C60.367 53.1811 62.1561 51.392 62.1561 49.1851V33.9822C62.1561 31.9934 60.703 30.3446 58.8007 30.0378Z" fill="#C1D5E4"/>
<path d="M23.6776 33.2366C23.1614 33.2366 22.7432 32.8182 22.7432 32.3021V24.7301C22.7432 24.214 23.1615 23.7957 23.6776 23.7957C24.1937 23.7957 24.6121 24.214 24.6121 24.7301V32.3021C24.6121 32.8182 24.1937 33.2366 23.6776 33.2366Z" fill="#DD5790"/>
<path d="M42.3739 31.9304C41.8577 31.9304 41.4395 31.512 41.4395 30.9959V26.0363C41.4395 25.5202 41.8578 25.1018 42.3739 25.1018C42.8902 25.1018 43.3084 25.5202 43.3084 26.0363V30.9959C43.3084 31.512 42.8902 31.9304 42.3739 31.9304Z" fill="#DD5790"/>
<path d="M27.4169 35.34C26.9007 35.34 26.4824 34.9217 26.4824 34.4055V22.6267C26.4824 22.1106 26.9008 21.6923 27.4169 21.6923C27.9331 21.6923 28.3514 22.1106 28.3514 22.6267V34.4055C28.3514 34.9215 27.933 35.34 27.4169 35.34Z" fill="#DD5790"/>
<path d="M31.1557 34.2883C30.6394 34.2883 30.2212 33.8699 30.2212 33.3538V23.6784C30.2212 23.1623 30.6396 22.7439 31.1557 22.7439C31.6719 22.7439 32.0901 23.1623 32.0901 23.6784V33.3538C32.0901 33.8698 31.6718 34.2883 31.1557 34.2883Z" fill="#DD5790"/>
<path d="M38.6342 35.34C38.118 35.34 37.6997 34.9217 37.6997 34.4055V22.6267C37.6997 22.1106 38.1181 21.6923 38.6342 21.6923C39.1503 21.6923 39.5687 22.1106 39.5687 22.6267V34.4055C39.5687 34.9215 39.1504 35.34 38.6342 35.34Z" fill="#DD5790"/>
<path d="M34.8949 30.6242C34.3787 30.6242 33.9604 30.2058 33.9604 29.6897V27.3426C33.9604 26.8265 34.3788 26.4081 34.8949 26.4081C35.411 26.4081 35.8294 26.8265 35.8294 27.3426V29.6897C35.8294 30.2058 35.411 30.6242 34.8949 30.6242Z" fill="#DD5790"/>
<path d="M19.9379 30.6241C19.4217 30.6241 19.0034 30.2057 19.0034 29.6896V27.3424C19.0034 26.8263 19.4218 26.408 19.9379 26.408C20.454 26.408 20.8724 26.8263 20.8724 27.3424V29.6896C20.8725 30.2057 20.4541 30.6241 19.9379 30.6241Z" fill="#DD5790"/>
<path d="M36.0021 49.1645L28.626 44.9059C28.1416 44.6263 27.5361 44.9758 27.5361 45.5351V54.0524C27.5361 54.6117 28.1416 54.9613 28.626 54.6816L36.0021 50.4229C36.4865 50.1433 36.4865 49.4441 36.0021 49.1645Z" fill="#F6F9F9"/>
<path d="M12.8086 56.9074H8.63034C7.56678 56.9074 6.70459 56.0452 6.70459 54.9816V28.1858C6.70459 27.1222 7.56678 26.26 8.63034 26.26H12.8086C13.8721 26.26 14.7343 27.1222 14.7343 28.1858V54.9817C14.7342 56.0453 13.872 56.9074 12.8086 56.9074Z" fill="#DAE7EF"/>
<path d="M49.5034 26.26H53.6816C54.7452 26.26 55.6074 27.1222 55.6074 28.1858V54.9818C55.6074 56.0453 54.7452 56.9075 53.6816 56.9075H49.5034C48.4398 56.9075 47.5776 56.0453 47.5776 54.9818V28.1858C47.5778 27.1222 48.4399 26.26 49.5034 26.26Z" fill="#DAE7EF"/>
<path d="M12.8086 26.26H11.3284V51.576C11.3284 52.6396 10.4662 53.5018 9.40268 53.5018H6.70459V54.9818C6.70459 56.0453 7.56678 56.9075 8.63034 56.9075H12.8086C13.8721 56.9075 14.7343 56.0453 14.7343 54.9818V28.1858C14.7342 27.1222 13.8721 26.26 12.8086 26.26Z" fill="#C1D5E4"/>
<path d="M53.681 26.26H52.201V51.576C52.201 52.6396 51.3388 53.5018 50.2752 53.5018H47.5771V54.9818C47.5771 56.0453 48.4393 56.9075 49.5029 56.9075H53.6811C54.7447 56.9075 55.6069 56.0453 55.6069 54.9818V28.1858C55.6067 27.1222 54.7446 26.26 53.681 26.26Z" fill="#C1D5E4"/>
</g>
<defs>
<clipPath id="clip0">
<rect width="62" height="62" fill="white" transform="translate(0.155762)"/>
</clipPath>
</defs>
</svg>
