<svg width="62" height="62" viewBox="0 0 62 62" fill="none" xmlns="http://www.w3.org/2000/svg">
<path d="M40.0974 41.7082C40.3935 41.0165 40.6906 40.3333 40.9883 39.6587C40.5864 36.3909 39.1492 33.229 36.9336 30.5832C35.364 28.7089 34.35 26.3696 34.35 23.4535C34.35 16.7565 39.103 13.3418 44.7659 11.65C50.328 9.98843 49.9088 1.98547 44.2166 0.847065C24.3551 -3.12505 2.45503 7.03592 0.39329 27.8516C-0.644847 38.333 3.9325 47.0413 10.2061 53.8906C16.8386 61.1318 27.8675 61.3588 34.87 55.3833C36.2103 51.3245 37.9873 46.6376 40.0974 41.7082Z" fill="#DBEDFF"/>
<path d="M19.5025 53.8905C13.229 47.0413 8.65152 38.3329 9.68965 27.8514C11.2958 11.6353 24.9418 1.88589 40.2842 0.247009C21.5648 -1.7445 2.31965 8.40243 0.393287 27.8514C-0.64485 38.3329 3.93261 47.0413 10.2061 53.8905C14.9049 59.0205 21.8102 60.629 27.9272 59.0067C24.8132 58.1748 21.8762 56.482 19.5025 53.8905Z" fill="#B5DCFF"/>
<path d="M25.6089 15.2437C27.876 15.2437 29.7138 13.4059 29.7138 11.1388C29.7138 8.87167 27.876 7.03381 25.6089 7.03381C23.3418 7.03381 21.5039 8.87167 21.5039 11.1388C21.5039 13.4059 23.3418 15.2437 25.6089 15.2437Z" fill="#F4DD45"/>
<path d="M23.7547 52.6412C26.4238 52.6412 28.5876 50.4774 28.5876 47.8083C28.5876 45.1392 26.4238 42.9755 23.7547 42.9755C21.0856 42.9755 18.9219 45.1392 18.9219 47.8083C18.9219 50.4774 21.0856 52.6412 23.7547 52.6412Z" fill="#64D465"/>
<path d="M15.493 26.7767C18.3539 26.7767 20.6731 24.4575 20.6731 21.5967C20.6731 18.7358 18.3539 16.4166 15.493 16.4166C12.6322 16.4166 10.313 18.7358 10.313 21.5967C10.313 24.4575 12.6322 26.7767 15.493 26.7767Z" fill="#F87C68"/>
<path d="M13.7425 41.6279C16.6034 41.6279 18.9226 39.3087 18.9226 36.4479C18.9226 33.587 16.6034 31.2678 13.7425 31.2678C10.8817 31.2678 8.5625 33.587 8.5625 36.4479C8.5625 39.3087 10.8817 41.6279 13.7425 41.6279Z" fill="#7FB3FA"/>
<path d="M26.1207 11.1388C26.1207 9.72767 26.8329 8.48319 27.9173 7.74439C27.2595 7.29622 26.4649 7.03394 25.6089 7.03394C23.3417 7.03394 21.5039 8.87178 21.5039 11.1389C21.5039 13.406 23.3417 15.2439 25.6089 15.2439C26.4649 15.2439 27.2595 14.9816 27.9173 14.5333C26.833 13.7944 26.1207 12.5499 26.1207 11.1388Z" fill="#FCC101"/>
<path d="M23.5387 47.8083C23.5387 45.9753 24.5593 44.3808 26.0631 43.5616C25.3773 43.1879 24.5908 42.9755 23.7547 42.9755C21.0857 42.9755 18.9219 45.1392 18.9219 47.8083C18.9219 50.4775 21.0856 52.6412 23.7547 52.6412C24.5908 52.6412 25.3773 52.4288 26.0631 52.0551C24.5593 51.2359 23.5387 49.6413 23.5387 47.8083Z" fill="#40C140"/>
<path d="M14.9298 21.5967C14.9298 19.5655 16.0995 17.8085 17.8014 16.9595C17.1062 16.6127 16.3228 16.4166 15.493 16.4166C12.6322 16.4166 10.313 18.7358 10.313 21.5967C10.313 24.4575 12.6322 26.7767 15.493 26.7767C16.3228 26.7767 17.1062 26.5805 17.8014 26.2338C16.0995 25.3848 14.9298 23.6278 14.9298 21.5967Z" fill="#EC625E"/>
<path d="M13.1793 36.4479C13.1793 34.4166 14.349 32.6597 16.0509 31.8107C15.3557 31.464 14.5723 31.2678 13.7425 31.2678C10.8817 31.2678 8.5625 33.587 8.5625 36.4479C8.5625 39.3087 10.8817 41.6279 13.7425 41.6279C14.5723 41.6279 15.3557 41.4317 16.0509 41.085C14.3491 40.236 13.1793 38.479 13.1793 36.4479Z" fill="#64A6F4"/>
<path d="M50.9121 34.0355L45.2983 31.7069L44.4957 31.9072C43.0105 34.8845 41.4777 38.1929 39.9729 41.7083C37.3908 47.7401 35.3066 53.4104 33.9124 58.0088C33.4698 59.4687 34.1616 61.0329 35.5366 61.6937C37.0073 62.4005 38.7728 61.8453 39.5757 60.4248C41.9394 56.2424 44.602 50.8223 47.1823 44.7945C48.6871 41.279 50.0229 37.8862 51.1519 34.7564L50.9121 34.0355Z" fill="#CE775F"/>
<path d="M37.4678 58.4759C38.8621 53.8774 40.9462 48.2071 43.5283 42.1753C44.9672 38.8138 46.4316 35.6423 47.8557 32.7679L45.2983 31.7072L44.4957 31.9074C43.0105 34.8848 41.4777 38.1932 39.9729 41.7085C37.3908 47.7403 35.3066 53.4107 33.9124 58.0091C33.4698 59.469 34.1616 61.0331 35.5366 61.694C36.4545 62.1351 37.4873 62.0845 38.3291 61.639C37.4804 60.8524 37.1171 59.6323 37.4678 58.4759Z" fill="#C0694E"/>
<path d="M51.4053 19.4011L55.4313 21.1245C55.6146 21.2029 55.7675 21.3221 55.8863 21.4662C57.3229 20.647 59.8768 18.8657 61.0934 16.0234C62.4339 12.8918 61.4103 7.20885 60.8632 4.74011C60.7288 4.13343 60.0425 3.83966 59.5107 4.16116C57.3468 5.46934 52.5284 8.65156 51.1879 11.783C49.9712 14.6254 50.4452 17.7027 50.8441 19.3077C51.0304 19.2942 51.2222 19.3226 51.4053 19.4011Z" fill="#FFE97B"/>
<path d="M54.3483 13.7375C55.4504 11.1629 58.9021 8.55517 61.298 6.98168C61.1516 6.10399 60.9939 5.32972 60.8632 4.74011C60.7288 4.13343 60.0425 3.83966 59.5107 4.16116C57.3468 5.46934 52.5284 8.65156 51.1879 11.783C49.9712 14.6252 50.4452 17.7027 50.8441 19.3077C51.0303 19.2941 51.2221 19.3226 51.4053 19.4009L53.8242 20.4363C53.5009 18.7293 53.3161 16.1491 54.3483 13.7375Z" fill="#F4DD45"/>
<path d="M49.3688 23.0173C47.887 25.4081 46.2239 28.436 44.4956 31.9072L51.1519 34.7565C52.4705 31.11 53.5133 27.8165 54.2204 25.0941C54.0705 25.0911 53.919 25.0608 53.773 24.9983L49.747 23.2749C49.6009 23.2124 49.4744 23.1237 49.3688 23.0173Z" fill="#477B9E"/>
<path d="M48.0507 32.3742C49.5659 29.3307 51.031 26.6282 52.3678 24.3971L49.7465 23.275C49.6005 23.2125 49.474 23.1238 49.3683 23.0175C47.8865 25.4082 46.2234 28.4362 44.4951 31.9073L47.6198 33.2449C47.7639 32.9519 47.9075 32.661 48.0507 32.3742Z" fill="#3F6D8E"/>
<path d="M55.4847 20.9999L51.4587 19.2764C50.8426 19.0127 50.1292 19.2984 49.8655 19.9145L49.0557 21.8062C48.792 22.4223 49.0777 23.1357 49.6938 23.3995L53.7198 25.1229C54.3359 25.3866 55.0493 25.1009 55.313 24.4848L56.1228 22.5931C56.3865 21.977 56.1008 21.2637 55.4847 20.9999Z" fill="#DBEDFF"/>
<path d="M52.0592 23.0994L52.9288 21.068C53.1029 20.6612 53.4599 20.3893 53.8627 20.3055L51.4587 19.2764C50.8426 19.0127 50.1292 19.2984 49.8655 19.9145L49.0557 21.8062C48.792 22.4223 49.0777 23.1357 49.6938 23.3995L52.3313 24.5285C51.9696 24.1629 51.8443 23.6013 52.0592 23.0994Z" fill="#B5DCFF"/>
</svg>
